<?xml version="1.0" encoding="UTF-8"?>
<svg id="Layer_1" xmlns="http://www.w3.org/2000/svg" version="1.1" viewBox="0 0 232.3 40">
  <!-- Generator: Adobe Illustrator 30.3.0, SVG Export Plug-In . SVG Version: 2.1.3 Build 182)  -->
  <defs>
    <style>
      .st0, .st1 {
        fill: #48a8ff;
      }

      .st2 {
        fill: #fff;
      }

      .st3, .st1, .st4 {
        isolation: isolate;
      }

      .st1, .st4 {
        font-family: Arial-BoldMT, Arial;
        font-size: 24px;
        font-weight: 700;
        letter-spacing: 0em;
      }

      .st4 {
        fill: #f0f4fa;
      }
    </style>
  </defs>
  <path class="st2" d="M4.2,6.5h19.6c2.1,0,3.8,1.7,3.8,3.8v19.6c0,2.1-1.7,3.8-3.8,3.8H4.2c-2.1,0-3.8-1.7-3.8-3.8V10.2c0-2.1,1.7-3.8,3.8-3.8Z"/>
  <path class="st0" d="M23.8,6.9c1.8,0,3.3,1.5,3.3,3.3v19.6c0,1.8-1.5,3.3-3.3,3.3H4.2c-1.8,0-3.3-1.5-3.3-3.3V10.2c0-1.8,1.5-3.3,3.3-3.3h19.6M23.8,6H4.2C1.9,6,0,7.9,0,10.2v19.6c0,2.3,1.9,4.2,4.2,4.2h19.6c2.3,0,4.2-1.9,4.2-4.2V10.2c0-2.3-1.9-4.2-4.2-4.2h0Z"/>
  <rect class="st0" x="7" y="25.8" width="3.9" height="3.8" rx=".4" ry=".4"/>
  <rect class="st0" x="12" y="25.7" width="3.9" height="3.9" rx=".4" ry=".4"/>
  <rect class="st0" x="17" y="20" width="3.9" height="9.6" rx=".4" ry=".4"/>
  <rect class="st0" x="17.1" y="10.6" width="3.9" height="3.8" rx=".4" ry=".4"/>
  <rect class="st0" x="12.1" y="10.6" width="3.9" height="9.4" rx=".4" ry=".4"/>
  <rect class="st0" x="7" y="10.6" width="3.9" height="9.4" rx=".4" ry=".4"/>
  <g class="st3">
    <text class="st4" transform="translate(36 28)"><tspan x="0" y="0">SESSION</tspan></text>
    <text class="st1" transform="translate(146.2 28)"><tspan x="0" y="0">GOALS</tspan></text>
  </g>
</svg>