<?xml version="1.0" encoding="UTF-8"?>
<svg id="Layer_1" xmlns="http://www.w3.org/2000/svg" version="1.1" viewBox="0 0 254.6 52">
  <!-- Generator: Adobe Illustrator 30.3.0, SVG Export Plug-In . SVG Version: 2.1.3 Build 182)  -->
  <defs>
    <style>
      .st0 {
        fill: #48a8ff;
      }

      .st1, .st2 {
        fill: #fff;
      }

      .st2 {
        font-family: Arial-BoldMT, Arial;
        font-size: 24px;
        font-weight: 700;
        isolation: isolate;
        letter-spacing: 0em;
      }
    </style>
  </defs>
  <rect class="st0" width="254.6" height="52" rx="12" ry="12"/>
  <path class="st1" d="M35.8,12.9c1.8,0,3.3,1.5,3.3,3.3v19.6c0,1.8-1.5,3.3-3.3,3.3h-19.6c-1.8,0-3.3-1.5-3.3-3.3v-19.6c0-1.8,1.5-3.3,3.3-3.3h19.6M35.8,12h-19.6c-2.3,0-4.2,1.9-4.2,4.2v19.6c0,2.3,1.9,4.2,4.2,4.2h19.6c2.3,0,4.2-1.9,4.2-4.2v-19.6c0-2.3-1.9-4.2-4.2-4.2h0Z"/>
  <rect class="st1" x="19" y="31.8" width="3.9" height="3.8" rx=".4" ry=".4"/>
  <rect class="st1" x="24" y="31.7" width="3.9" height="3.9" rx=".4" ry=".4"/>
  <rect class="st1" x="29" y="26" width="3.9" height="9.6" rx=".4" ry=".4"/>
  <rect class="st1" x="29.1" y="16.6" width="3.9" height="3.8" rx=".4" ry=".4"/>
  <rect class="st1" x="24.1" y="16.6" width="3.9" height="9.4" rx=".4" ry=".4"/>
  <rect class="st1" x="19" y="16.6" width="3.9" height="9.4" rx=".4" ry=".4"/>
  <text class="st2" transform="translate(48 34)"><tspan x="0" y="0">SESSIONGOALS</tspan></text>
</svg>